<mxfile host="app.diagrams.net" agent="Mozilla/5.0 (Macintosh; Intel Mac OS X 10_15_7) AppleWebKit/605.1.15 (KHTML, like Gecko) Version/18.3 Safari/605.1.15" version="26.0.16">
  <diagram name="Page-1" id="7ekEpxPJGH3e3O2Qytre">
    <mxGraphModel dx="662" dy="456" grid="1" gridSize="10" guides="1" tooltips="1" connect="1" arrows="1" fold="1" page="1" pageScale="1" pageWidth="850" pageHeight="1100" math="1" shadow="0">
      <root>
        <mxCell id="0" />
        <mxCell id="1" parent="0" />
        <mxCell id="R5N9iUck8QXcpXk98RcQ-7" value="" style="edgeStyle=orthogonalEdgeStyle;rounded=0;orthogonalLoop=1;jettySize=auto;html=1;exitX=1;exitY=0.5;exitDx=0;exitDy=0;" edge="1" parent="1" source="R5N9iUck8QXcpXk98RcQ-1" target="R5N9iUck8QXcpXk98RcQ-6">
          <mxGeometry relative="1" as="geometry">
            <Array as="points">
              <mxPoint x="460" y="215" />
              <mxPoint x="460" y="290" />
              <mxPoint x="90" y="290" />
              <mxPoint x="90" y="215" />
            </Array>
          </mxGeometry>
        </mxCell>
        <mxCell id="R5N9iUck8QXcpXk98RcQ-1" value="" style="rounded=0;whiteSpace=wrap;html=1;" vertex="1" parent="1">
          <mxGeometry x="130" y="175" width="290" height="80" as="geometry" />
        </mxCell>
        <mxCell id="R5N9iUck8QXcpXk98RcQ-5" value="" style="edgeStyle=orthogonalEdgeStyle;rounded=0;orthogonalLoop=1;jettySize=auto;html=1;" edge="1" parent="1" source="R5N9iUck8QXcpXk98RcQ-2" target="R5N9iUck8QXcpXk98RcQ-3">
          <mxGeometry relative="1" as="geometry" />
        </mxCell>
        <mxCell id="R5N9iUck8QXcpXk98RcQ-2" value="&lt;font style=&quot;font-size: 18px;&quot;&gt;线性运算&lt;/font&gt;" style="rounded=1;whiteSpace=wrap;html=1;" vertex="1" parent="1">
          <mxGeometry x="160" y="190" width="80" height="50" as="geometry" />
        </mxCell>
        <mxCell id="R5N9iUck8QXcpXk98RcQ-3" value="&lt;font style=&quot;font-size: 18px;&quot;&gt;非线性运算&lt;/font&gt;" style="rounded=1;whiteSpace=wrap;html=1;" vertex="1" parent="1">
          <mxGeometry x="290" y="190" width="100" height="50" as="geometry" />
        </mxCell>
        <mxCell id="R5N9iUck8QXcpXk98RcQ-6" value="" style="shape=waypoint;sketch=0;size=6;pointerEvents=1;points=[];fillColor=default;resizable=0;rotatable=0;perimeter=centerPerimeter;snapToPoint=1;rounded=0;" vertex="1" parent="1">
          <mxGeometry x="120" y="205" width="20" height="20" as="geometry" />
        </mxCell>
        <mxCell id="R5N9iUck8QXcpXk98RcQ-10" value="" style="edgeStyle=orthogonalEdgeStyle;rounded=0;orthogonalLoop=1;jettySize=auto;html=1;exitX=1;exitY=0.5;exitDx=0;exitDy=0;" edge="1" parent="1" source="R5N9iUck8QXcpXk98RcQ-11" target="R5N9iUck8QXcpXk98RcQ-15">
          <mxGeometry relative="1" as="geometry">
            <Array as="points">
              <mxPoint x="500" y="360" />
              <mxPoint x="540" y="360" />
              <mxPoint x="540" y="480" />
              <mxPoint x="90" y="480" />
              <mxPoint x="90" y="360" />
            </Array>
          </mxGeometry>
        </mxCell>
        <mxCell id="R5N9iUck8QXcpXk98RcQ-11" value="" style="rounded=0;whiteSpace=wrap;html=1;" vertex="1" parent="1">
          <mxGeometry x="130" y="320" width="370" height="120" as="geometry" />
        </mxCell>
        <mxCell id="R5N9iUck8QXcpXk98RcQ-12" value="" style="edgeStyle=orthogonalEdgeStyle;rounded=0;orthogonalLoop=1;jettySize=auto;html=1;exitX=1;exitY=0.5;exitDx=0;exitDy=0;" edge="1" parent="1" source="R5N9iUck8QXcpXk98RcQ-16" target="R5N9iUck8QXcpXk98RcQ-14">
          <mxGeometry relative="1" as="geometry" />
        </mxCell>
        <mxCell id="R5N9iUck8QXcpXk98RcQ-13" value="&lt;font style=&quot;font-size: 18px;&quot;&gt;线性运算&lt;/font&gt;" style="rounded=1;whiteSpace=wrap;html=1;" vertex="1" parent="1">
          <mxGeometry x="150" y="335" width="80" height="50" as="geometry" />
        </mxCell>
        <mxCell id="R5N9iUck8QXcpXk98RcQ-14" value="&lt;font style=&quot;font-size: 18px;&quot;&gt;非线性运算&lt;/font&gt;" style="rounded=1;whiteSpace=wrap;html=1;" vertex="1" parent="1">
          <mxGeometry x="380" y="335" width="100" height="50" as="geometry" />
        </mxCell>
        <mxCell id="R5N9iUck8QXcpXk98RcQ-15" value="" style="shape=waypoint;sketch=0;size=6;pointerEvents=1;points=[];fillColor=default;resizable=0;rotatable=0;perimeter=centerPerimeter;snapToPoint=1;rounded=0;" vertex="1" parent="1">
          <mxGeometry x="120" y="350" width="20" height="20" as="geometry" />
        </mxCell>
        <mxCell id="R5N9iUck8QXcpXk98RcQ-16" value="&lt;font style=&quot;font-size: 18px;&quot;&gt;线性运算&lt;/font&gt;" style="rounded=1;whiteSpace=wrap;html=1;" vertex="1" parent="1">
          <mxGeometry x="275" y="335" width="80" height="50" as="geometry" />
        </mxCell>
        <mxCell id="R5N9iUck8QXcpXk98RcQ-17" value="" style="endArrow=classic;html=1;rounded=0;strokeColor=none;" edge="1" parent="1" source="R5N9iUck8QXcpXk98RcQ-13">
          <mxGeometry width="50" height="50" relative="1" as="geometry">
            <mxPoint x="240" y="410" as="sourcePoint" />
            <mxPoint x="280" y="360" as="targetPoint" />
            <Array as="points">
              <mxPoint x="260" y="360" />
            </Array>
          </mxGeometry>
        </mxCell>
        <mxCell id="R5N9iUck8QXcpXk98RcQ-18" value="" style="endArrow=classic;html=1;rounded=0;dashed=1;entryX=0;entryY=0.5;entryDx=0;entryDy=0;exitX=1;exitY=0.5;exitDx=0;exitDy=0;" edge="1" parent="1" source="R5N9iUck8QXcpXk98RcQ-13" target="R5N9iUck8QXcpXk98RcQ-16">
          <mxGeometry width="50" height="50" relative="1" as="geometry">
            <mxPoint x="240" y="360" as="sourcePoint" />
            <mxPoint x="300" y="310" as="targetPoint" />
          </mxGeometry>
        </mxCell>
        <mxCell id="R5N9iUck8QXcpXk98RcQ-19" value="&lt;font style=&quot;font-size: 19px;&quot;&gt;···&lt;/font&gt;" style="edgeLabel;html=1;align=center;verticalAlign=middle;resizable=0;points=[];" vertex="1" connectable="0" parent="R5N9iUck8QXcpXk98RcQ-18">
          <mxGeometry x="-0.151" y="-1" relative="1" as="geometry">
            <mxPoint as="offset" />
          </mxGeometry>
        </mxCell>
        <mxCell id="R5N9iUck8QXcpXk98RcQ-20" value="" style="strokeWidth=2;html=1;shape=mxgraph.flowchart.annotation_2;align=left;labelPosition=right;pointerEvents=1;rotation=-90;" vertex="1" parent="1">
          <mxGeometry x="245" y="315" width="20" height="160" as="geometry" />
        </mxCell>
        <mxCell id="R5N9iUck8QXcpXk98RcQ-21" value="&lt;font style=&quot;font-size: 18px;&quot;&gt;多次迭代&lt;/font&gt;" style="text;html=1;align=center;verticalAlign=middle;whiteSpace=wrap;rounded=0;" vertex="1" parent="1">
          <mxGeometry x="205" y="405" width="100" height="30" as="geometry" />
        </mxCell>
      </root>
    </mxGraphModel>
  </diagram>
</mxfile>
